<svg width="447" height="440" viewBox="0 0 447 440" fill="none" xmlns="http://www.w3.org/2000/svg">
<path d="M91.0245 241.205C91.0245 241.205 141.41 239.187 152.298 156.364C161.967 82.8096 246.93 116.289 271.49 145.61C303.305 183.592 286.345 248.93 327.501 257.184C368.658 265.438 341.782 357.208 279.309 348.424C201.595 337.497 220.397 382.909 197.068 402.13C180.325 415.925 111.672 402.646 109.384 352.569C107.459 310.43 89.6838 310.563 77.0847 305.785C58.9139 298.894 47.4643 248.986 91.0245 241.205Z" fill="#3E3E3E"/>
<path d="M262.306 333.185L212.804 284.27L203.002 294.19L252.504 343.104L262.306 333.185Z" fill="#FFFF80"/>
<path d="M281.216 346.328L242.703 308.272C242.489 308.06 242.143 308.062 241.932 308.277L227.355 323.029C227.143 323.243 227.145 323.589 227.359 323.8L265.872 361.856C266.087 362.068 266.432 362.066 266.644 361.852L281.221 347.1C281.433 346.885 281.431 346.54 281.216 346.328Z" fill="#FFCC3F"/>
<path d="M168.93 308.87C202.986 308.87 230.594 281.262 230.594 247.207C230.594 213.151 202.986 185.543 168.93 185.543C134.874 185.543 107.267 213.151 107.267 247.207C107.267 281.262 134.874 308.87 168.93 308.87Z" fill="#FFCC3F"/>
<path d="M168.93 298.809C197.429 298.809 220.532 275.706 220.532 247.207C220.532 218.708 197.429 195.605 168.93 195.605C140.431 195.605 117.328 218.708 117.328 247.207C117.328 275.706 140.431 298.809 168.93 298.809Z" fill="#3E3E3E"/>
<path d="M329.675 298.794C335.001 298.94 340.328 298.842 345.654 298.745C360.515 298.478 375.376 298.186 390.237 297.918C392.548 297.869 395.539 297.407 395.661 295.851C395.783 294.44 393.423 293.54 391.429 293.127C384.302 291.643 376.811 291.351 369.417 291.132C358.545 290.792 347.649 290.5 336.777 290.281C329.991 290.135 323.01 290.062 316.687 291.643C313.257 292.519 308.198 296.143 313.719 297.894C315.252 298.38 318.316 298.137 319.97 298.283C323.205 298.502 326.44 298.696 329.675 298.794Z" fill="url(#paint0_linear_366_7157)"/>
<path opacity="0.22" d="M329.675 298.794C335.001 298.94 340.328 298.842 345.654 298.745C360.515 298.478 375.376 298.186 390.237 297.918C392.548 297.869 395.539 297.407 395.661 295.851C395.783 294.44 393.423 293.54 391.429 293.127C384.302 291.643 376.811 291.351 369.417 291.132C358.545 290.792 347.649 290.5 336.777 290.281C329.991 290.135 323.01 290.062 316.687 291.643C313.257 292.519 308.198 296.143 313.719 297.894C315.252 298.38 318.316 298.137 319.97 298.283C323.205 298.502 326.44 298.696 329.675 298.794Z" fill="url(#paint1_linear_366_7157)"/>
<path d="M320.383 70.8939C319.045 71.7209 318 72.864 317.027 74.0072C310.533 81.7416 306.471 90.7166 302.895 99.6672C300.974 104.483 299.15 109.493 299.515 114.504C299.563 115.063 299.636 115.647 299.928 116.133C300.196 116.62 300.658 116.985 301.12 117.325C301.874 117.885 302.652 118.42 303.455 118.882C304.063 119.247 304.72 119.587 305.474 119.636C306.13 119.66 306.787 119.466 307.395 119.174C309.852 118.006 311.335 115.696 312.162 113.409C312.989 111.099 313.281 108.715 314.181 106.429C314.935 104.507 316.078 102.732 317.124 100.908C318.583 98.3538 319.872 95.7513 321.137 93.1245C322.524 90.2788 323.91 87.4331 324.907 84.4901C325.783 81.9605 326.366 79.3338 327.729 76.9259C328.41 75.7341 329.261 74.6152 329.65 73.3505C331.182 68.5103 323.496 68.9968 320.383 70.8939Z" fill="#A8A9AD"/>
<path d="M373.551 288.968C373.746 288.7 373.892 288.408 373.989 288.068C372.238 267.442 372.043 246.817 370.9 226.192C369.854 207.245 372.043 187.908 371.848 168.84C372.529 162.224 371.435 155.487 368.614 149.285C368.443 148.896 368.249 148.506 367.908 148.215C366.838 147.29 364.99 147.777 363.555 148.263C349.837 152.933 333.638 151.839 321.136 145.247C318.656 148.36 317.95 152.179 317.342 155.852C316.345 161.811 315.275 167.77 315.007 173.753V173.777C314.959 175.066 314.91 176.355 314.959 177.644C315.129 185.111 316.88 192.457 318.242 199.802C319.142 204.594 319.92 209.434 319.993 214.298C320.066 218.287 319.385 221.911 320.455 225.803C323.107 235.386 323.107 245.844 324.225 255.646C325.417 266.129 326.609 276.636 327.582 287.143C327.631 287.557 327.655 287.97 327.703 288.408C327.874 288.457 328.725 288.603 329.868 288.797C329.747 288.822 329.601 288.822 329.479 288.846C327.193 290.354 324.663 291.619 322.012 292.567C321.234 292.835 320.431 293.102 319.872 293.637C319.312 294.173 319.069 295.072 319.604 295.656C320.066 296.143 320.893 296.216 321.623 296.216C327.193 296.264 332.738 295.851 338.211 294.975C338.527 294.926 338.892 294.854 339.135 294.659C339.33 294.489 339.403 294.27 339.475 294.027C340.035 292.178 339.67 290.135 338.503 288.53C338.357 288.53 338.211 288.53 338.065 288.505C338.089 288.457 338.113 288.408 338.113 288.335C338.892 267.929 339.67 247.547 340.473 227.14C340.813 218.555 340.059 189.562 342.686 181.39C343.781 181.487 344.851 181.56 345.945 181.658C351.904 208.655 358.982 255.938 364.941 282.911C365.476 285.295 366.108 287.849 368.006 289.381C368.006 289.381 368.006 289.381 368.03 289.381C367.179 289.527 366.327 289.673 365.476 289.867C363.603 291.4 361.511 292.713 359.249 293.759C358.593 294.075 357.912 294.367 357.45 294.902C357.012 295.437 356.915 296.264 357.45 296.726C357.912 297.14 358.666 297.115 359.298 297.067C364.26 296.702 369.173 295.899 373.964 294.683C374.256 294.61 374.548 294.537 374.743 294.318C374.889 294.148 374.937 293.929 374.986 293.735C375.254 292.056 374.718 290.305 373.551 288.968Z" fill="#3E3E3E"/>
<path d="M374.476 128.902C374.355 122.968 374.136 117.033 373.771 111.099C373.309 103.364 373.017 95.4106 371.606 87.7491C370.706 82.9333 368.858 77.8014 364.383 74.9557C363.264 72.645 361.634 70.6992 359.178 69.6047C358.424 68.4859 356.964 68.34 355.797 68.8751C354.873 68.413 353.656 68.3399 352.683 69.1182C351.905 69.7263 351.224 70.3831 350.567 71.0641C347.6 70.7965 344.609 70.2857 341.666 70.7965C338.65 71.3073 334.393 70.5776 330.648 70.6993C330.137 69.1183 327.899 68.0238 326.488 69.6777C325.443 70.8695 324.518 72.1342 323.643 73.399C322.864 74.2989 322.208 75.3448 321.648 76.5366C318.073 82.6658 315.933 89.4274 314.716 96.3592C310.484 111.731 310.192 128.1 310.898 144.08C310.898 144.177 310.874 144.298 310.898 144.396L311.384 157.481C311.53 161.519 311.384 165.678 312.309 169.642C313.719 175.674 317.976 174.385 325.686 174.92C327.194 175.017 328.604 175.99 328.41 175.017C329.042 175.042 329.675 175.066 330.331 175.09C330.55 175.09 330.793 175.115 331.012 175.115C331.085 175.115 331.134 175.115 331.207 175.115C333.809 175.188 336.436 175.163 338.795 175.115C339.039 175.115 339.258 175.115 339.501 175.09C340.158 176.063 341.593 176.647 342.833 176.307C343.514 176.112 344.195 175.942 344.876 175.771C345.119 175.844 345.387 175.893 345.679 175.917C346.238 175.942 346.798 175.966 347.357 175.99C348.305 176.574 349.546 176.671 350.47 175.99C355.091 175.869 359.64 175.163 364.042 173.923L367.763 173.51C368.177 173.461 368.59 173.339 368.979 173.145C370.293 173.291 371.777 172.683 372.166 171.248C375.838 157.189 376.155 143.009 374.476 128.902Z" fill="#FFCC3F"/>
<path d="M353.462 43.9205C353.462 37.5237 347.357 32.343 339.793 32.343C332.253 32.343 326.124 37.5237 326.124 43.9205C326.124 44.9907 326.318 46.0122 326.635 47.0094C326.635 47.2526 326.659 47.5202 326.659 47.7877C326.61 50.0983 326.732 52.4089 327.218 54.6952C328.191 59.1219 330.696 63.2324 335.439 65.7619C337.02 66.5889 338.844 67.2455 340.741 67.2212C343.295 67.1969 345.63 66.0051 347.381 64.5215C353.219 59.6327 353.73 52.2873 353.316 45.3311C353.413 44.869 353.462 44.4069 353.462 43.9205Z" fill="#EDD5BE"/>
<path d="M356.866 45.5987C356.72 43.7259 356.428 41.9261 355.941 40.1262V40.1019C355.625 38.2534 355.333 36.4292 355.042 34.5807C354.969 34.07 354.652 33.6322 354.117 33.5349C352.074 33.1457 350.031 32.8538 347.964 32.6349C346.577 31.9052 344.826 31.5648 343.27 31.7107C342.151 31.5648 341.008 31.6134 340.059 31.735C339.475 31.808 338.843 31.9296 338.235 32.1242C337.165 32.0998 336.095 32.1485 335.049 32.2458C332.762 30.1054 327.484 30.7135 325.903 33.3646C325.587 33.8997 325.417 34.4105 325.368 34.8969C323.301 35.4077 321.258 36.6724 320.65 38.7884C320.334 39.8343 320.48 41.0018 321.136 41.8774C321.501 42.3882 322.036 42.6557 322.596 42.8989C322.815 43.1664 323.082 43.434 323.35 43.6772C323.593 44.0907 323.933 44.4312 324.444 44.7231C324.639 44.8447 324.858 44.869 325.052 44.869C325.198 44.9663 325.344 45.0393 325.466 45.1122C326.39 45.6717 327.266 44.6258 327.071 43.7502C327.193 43.507 327.217 43.2151 327.168 42.9233C327.557 42.4611 327.922 41.926 328.287 41.5369C328.725 41.318 329.138 41.0991 329.6 40.9045C329.649 40.8802 329.698 40.8802 329.746 40.8558C329.819 40.8315 329.868 40.8072 329.941 40.7829C330.622 40.5397 331.279 40.491 331.911 40.5883C331.984 40.6127 332.033 40.6369 332.106 40.6369C332.616 40.7829 333.127 40.9288 333.662 41.0505C333.978 41.1721 334.319 41.318 334.635 41.4639C334.976 41.6098 335.316 41.5612 335.608 41.4153C338.673 41.8774 341.883 41.9017 344.996 41.7315C346.431 42.9962 349.01 42.68 350.42 41.4639L350.445 41.4396C350.493 41.9747 350.372 42.5341 350.055 43.0448C349.861 43.361 349.885 43.8961 350.104 44.188C350.737 44.9663 351.028 45.8176 350.98 46.8148C350.955 47.6175 351.831 47.9823 352.463 47.8363C352.658 47.7877 352.634 48.4687 352.561 49.1497C352.488 48.9795 352.293 48.8579 352.05 48.9309C350.639 49.3687 349.204 49.8064 347.769 50.1956C347.623 49.7335 347.331 49.3443 346.796 49.1254C346.018 48.8092 344.996 48.9309 344.194 48.9309C342.516 48.9309 340.837 48.9552 339.159 48.9309C338.94 48.9309 338.794 49.0525 338.746 49.1984C338.502 49.1984 338.259 49.1984 338.04 49.1984C337.773 49.1984 337.554 49.393 337.554 49.6362C337.554 50.22 337.554 50.7794 337.578 51.3631C337.262 51.3388 336.97 51.3145 336.678 51.3145C336.022 51.2901 335.365 51.2901 334.708 51.2901C334.684 50.9739 334.659 50.6577 334.635 50.3659C334.659 50.0983 334.684 49.8551 334.684 49.5875C334.684 49.3443 334.465 49.1497 334.197 49.1497H334.076C334.051 49.1497 334.027 49.1254 333.978 49.1254C332.47 49.0524 330.963 48.9552 329.455 48.8822C328.409 48.8336 326.998 48.493 326.025 48.8335C324.59 49.32 324.809 50.9983 324.979 52.3603C324.833 52.944 324.809 53.5278 325.125 53.8683C325.368 54.1601 325.709 54.1845 326.049 54.2331C327.168 54.4277 328.482 54.2574 329.6 54.2574C330.695 54.2574 333.127 54.7439 334.051 53.9656C334.465 53.6008 334.635 52.944 334.684 52.2144C334.708 52.2144 334.732 52.2144 334.757 52.2144C334.781 52.3603 334.878 52.4819 335.073 52.5062C335.924 52.6522 336.8 52.7252 337.651 52.6765C337.846 53.3575 338.332 53.9412 339.232 54.2331C340.4 54.6466 342.005 54.3304 343.245 54.379C343.951 54.4033 344.632 54.4034 345.215 54.1601C345.726 54.1115 346.237 54.0385 346.723 53.9412C346.845 53.9169 346.942 53.8196 347.015 53.7223C347.161 53.698 347.307 53.6008 347.356 53.4548C347.575 52.7981 347.891 51.8252 347.891 50.9253C349.35 50.4875 350.834 50.074 352.317 49.6605C352.415 49.6362 352.488 49.5875 352.536 49.5146C352.463 49.9767 352.39 50.3902 352.366 50.4632C352.099 51.5334 351.612 52.4333 351.028 53.3332C350.785 53.698 350.907 54.4277 351.272 54.6952C351.539 54.8898 351.807 55.0114 352.05 55.133C351.709 56.7626 350.858 58.3193 349.983 59.8029C349.01 61.4568 346.577 62.9162 345.094 64.2052C343.61 65.5187 341.567 66.4429 339.475 66.297C339.208 66.2727 338.916 66.2483 338.673 66.1267C338.162 65.8835 337.967 65.3241 337.797 64.8133C337.651 64.3025 337.481 63.7675 336.97 63.4756C336.484 63.1837 335.608 63.4512 335.681 63.962C335.73 64.3025 336.119 64.5458 336.119 64.8863C336.119 65.2754 335.584 65.4943 335.146 65.397C334.732 65.2997 334.441 64.9836 334.149 64.6674C333.492 63.9377 332.835 63.208 332.203 62.5027C331.935 62.1865 331.619 61.9433 331.206 62.1136C331.741 63.2567 332.811 64.3512 333.565 65.397C334.197 66.2483 334.854 67.1239 335.803 67.7077C336.946 68.3887 338.356 68.5833 339.743 68.6076C341.421 68.6319 343.172 68.4373 344.51 67.5374C345.483 66.905 347.842 65.0079 348.45 64.0837C350.469 60.9947 351.758 58.8787 352.853 55.4492C352.853 55.4006 352.877 55.3763 352.877 55.3276C354.652 55.3763 355.698 53.1629 356.16 51.2901C356.525 49.7578 356.695 48.0796 356.379 46.5959C356.72 46.4257 356.914 46.0852 356.866 45.5987ZM333.37 52.4819C333.346 52.5549 333.297 52.6278 333.273 52.7008C331.838 52.8467 330.354 53.0413 328.944 52.9684C328.238 52.944 327.679 52.7981 327.29 52.4819V52.4576C327.29 51.6307 327.314 50.7794 327.314 49.9524C328.263 49.9524 329.187 49.9524 330.136 49.9524C331.254 49.9767 332.349 50.0253 333.468 50.0497C333.516 50.4631 333.565 50.9496 333.565 51.3874C333.492 51.7523 333.443 52.1171 333.37 52.4819ZM346.042 51.6307C345.848 52.4333 345.605 52.9926 344.851 53.3088C343.586 53.4548 342.321 53.4791 341.056 53.3818C340.01 53.2845 339.646 53.2846 339.548 52.3117C339.524 52.1414 339.524 51.9711 339.524 51.8009C339.573 51.6793 339.573 51.5333 339.524 51.4117C339.524 50.9982 339.548 50.5604 339.573 50.147C341.64 50.147 343.707 50.147 345.775 50.1713C345.921 50.2686 346.018 50.3902 346.091 50.5361C346.091 50.828 346.091 51.1442 346.091 51.436C346.067 51.509 346.042 51.5577 346.042 51.6307Z" fill="#333333"/>
<path d="M325.491 92.3218C324.129 90.0841 322.523 88.0654 320.918 86.0223C319.483 84.1981 319.337 81.6929 317.367 80.2336C315.446 78.8229 312.94 78.7986 310.654 79.0175C310.216 79.0661 309.827 79.2121 309.511 79.431C309.292 79.5283 309.098 79.6742 308.927 79.8444C308.222 79.9904 307.541 80.2336 306.811 80.5012C305.401 81.0606 304.963 82.4712 305.644 83.7846C308.733 89.9382 311.968 96.0918 316.954 100.956C317.61 101.613 318.486 101.637 319.216 101.345C319.629 101.491 320.091 101.589 320.578 101.589C321.867 101.589 323.204 101.345 324.469 101.126C325.783 100.908 326.999 100.664 327.68 99.3752C328.896 97.1376 326.634 94.1703 325.491 92.3218Z" fill="#909294"/>
<path d="M329.09 96.9673C325.101 91.1786 321.161 85.3656 317.172 79.5769C316.637 78.7986 315.761 78.8229 315.178 79.2364C313.086 79.1391 311.018 79.1148 308.927 79.1877C307.808 79.2364 306.567 79.1877 306.008 80.3065C305.838 80.6471 306.105 80.9876 306.47 80.9876C309.097 81.0119 311.724 81.0606 314.351 81.0849C314.472 81.2795 314.715 81.3281 314.91 81.2308C318.85 86.9709 322.79 92.7109 326.706 98.4753C327.728 100.032 330.136 98.4753 329.09 96.9673Z" fill="#606060"/>
<path d="M350.859 117.495C347.746 115.355 344.56 113.361 341.276 111.512C338.868 108.885 336.047 106.623 332.934 104.799C331.936 104.215 330.988 104.41 330.355 104.994C330.209 105.018 330.039 105.042 329.893 105.115C329.407 104.799 328.92 104.532 328.458 104.41C328.142 104.556 327.85 104.702 327.558 104.896C327.51 104.921 327.315 105.067 327.169 105.164C327.023 105.286 326.731 105.505 326.731 105.505C326.61 105.626 326.464 105.723 326.342 105.845C326.294 107.012 326.999 108.642 327.704 109.955L329.65 113.482C329.723 113.628 329.796 113.798 329.893 113.944C329.918 113.993 329.942 114.042 329.966 114.066L333.055 119.684C333.25 119.757 333.469 119.855 333.663 119.976C334.32 120.973 335.001 121.971 335.731 122.944C336.825 126.081 339.257 128.659 342.322 130.41C346.262 132.648 353.437 135.907 356.332 130.581C359.177 125.4 354.921 120.268 350.859 117.495Z" fill="#A8A9AD"/>
<path d="M363.774 83.2252C363.191 82.1064 361.756 81.6685 360.637 82.0577C359.737 82.0334 358.764 82.2037 357.718 82.6901C351.686 85.3656 350.3 92.9784 349.011 98.6941C347.187 106.793 345.995 115.136 347.284 123.43C347.43 124.403 348.014 125.011 348.695 125.303C348.646 126.227 348.622 127.151 348.646 128.075C348.67 129.608 349.789 130.264 350.932 130.24C351.37 130.435 351.783 130.532 352.148 130.556C352.635 130.945 353.243 131.164 353.948 131.091C361.439 130.192 360.88 120.536 362.072 115.014C362.85 111.366 363.945 107.864 365.282 104.386C366.523 101.126 367.812 97.7943 368.006 94.2675C368.201 90.7408 366.766 85.5358 363.774 83.2252Z" fill="#A8A9AD"/>
<path d="M326.561 106.477C326.804 106.429 327.023 106.356 327.242 106.234C328.263 105.699 328.677 104.653 328.871 103.559C329.139 102.002 328.968 100.397 328.871 98.8159C328.239 97.7944 327.485 96.8458 326.439 96.1891C326.244 96.408 326.074 96.6512 325.88 96.8701L326.439 98.3051C325.563 97.3322 324.517 96.481 323.399 95.7756C322.304 95.0946 320.82 94.5838 319.994 95.3621C319.191 96.1161 319.677 97.5268 320.261 98.6213C321.891 101.516 324.104 104.07 326.561 106.477Z" fill="#EDD5BE"/>
<path d="M306.057 96.7484C306.13 96.0674 306.203 95.362 306.592 94.8269C307.054 94.1946 307.881 93.8784 308.368 93.2704C309 92.5164 309.024 91.4218 309.535 90.5949C309.997 89.8166 310.824 89.3058 311.724 89.2328C312.624 89.1599 313.524 89.549 314.084 90.2301C315.081 91.4462 314.91 93.246 314.497 94.754C313.938 96.87 313.086 98.8888 311.943 100.762C311.724 101.126 311.481 101.491 311.141 101.71C310.459 102.124 309.608 101.905 308.854 101.686C307.833 101.394 306.227 101.297 305.814 100.154C305.473 99.1806 306.057 97.7456 306.057 96.7484Z" fill="#EDD5BE"/>
<path d="M347.479 70.1156C342.176 69.6292 336.777 70.0427 331.45 69.5319C331.061 69.4833 330.55 69.8724 330.502 70.2615C330.307 71.5263 330.283 71.429 330.429 72.6938C330.453 72.9613 330.599 73.1802 330.769 73.3262C330.891 77.0961 331.304 80.8417 331.912 84.5631C332.448 87.8222 332.788 91.5193 334.466 94.4136C334.758 94.9244 335.463 94.8757 335.78 94.4136C338.674 90.1086 341.666 85.8521 344.755 81.6687C346.214 79.6986 347.771 77.7772 349.206 75.7827C349.838 74.9071 351.224 73.5938 351.078 72.3047C350.811 70.4319 349.06 70.2615 347.479 70.1156Z" fill="#A8A9AD"/>
<rect x="220.5" y="163.618" width="104.399" height="29.1141" rx="3.5" fill="#919EAB" fill-opacity="0.2" stroke="#A8A9AD"/>
<rect x="43.1616" y="320.88" width="104.399" height="29.1141" rx="3.5" fill="#919EAB" fill-opacity="0.2" stroke="#A8A9AD"/>
<rect x="0.5" y="0.5" width="445.692" height="439" rx="39.5" stroke="url(#paint2_linear_366_7157)"/>
<defs>
<linearGradient id="paint0_linear_366_7157" x1="311.371" y1="293.359" x2="395.627" y2="296.851" gradientUnits="userSpaceOnUse">
<stop stop-color="white"/>
<stop offset="1"/>
</linearGradient>
<linearGradient id="paint1_linear_366_7157" x1="311.371" y1="293.359" x2="395.627" y2="296.851" gradientUnits="userSpaceOnUse">
<stop/>
<stop offset="1"/>
</linearGradient>
<linearGradient id="paint2_linear_366_7157" x1="223.346" y1="0" x2="223.346" y2="440" gradientUnits="userSpaceOnUse">
<stop stop-color="#3E3E3E"/>
<stop offset="1" stop-color="#FFAB00"/>
</linearGradient>
</defs>
</svg>
