<?xml version="1.0" standalone="no"?>
<!DOCTYPE svg PUBLIC "-//W3C//DTD SVG 20010904//EN"
 "http://www.w3.org/TR/2001/REC-SVG-20010904/DTD/svg10.dtd">
<svg version="1.0" xmlns="http://www.w3.org/2000/svg"
 width="205.000000pt" height="205.000000pt" viewBox="0 0 205.000000 205.000000"
 preserveAspectRatio="xMidYMid meet">
<metadata>
Created by potrace 1.14, written by Peter Selinger 2001-2017
</metadata>
<g transform="translate(0.000000,205.000000) scale(0.100000,-0.100000)"
fill="#000000" stroke="none">
<path d="M129 1861 c-1 -6 -2 -14 -3 -18 -3 -13 -20 -157 -20 -177 -1 -12 7
-20 19 -22 33 -5 267 -35 305 -40 19 -2 49 -6 65 -9 17 -3 50 -7 75 -10 25 -3
96 -12 159 -20 62 -8 136 -18 165 -21 28 -3 74 -9 101 -14 28 -5 75 -12 106
-15 31 -3 65 -7 75 -9 11 -2 46 -7 79 -10 33 -4 67 -9 75 -11 8 -2 40 -6 70
-9 59 -6 130 -15 170 -22 14 -2 63 -9 110 -14 47 -6 99 -13 117 -16 34 -5 35
-3 48 106 2 19 7 51 10 72 8 44 9 44 -155 62 -25 3 -148 19 -275 36 -126 17
-243 32 -260 34 -36 5 -188 25 -230 31 -81 11 -195 25 -235 30 -25 3 -56 7
-70 10 -14 2 -50 7 -80 10 -30 3 -82 10 -115 15 -33 5 -81 12 -107 15 -48 5
-95 11 -160 21 -24 4 -38 2 -39 -5z m182 -36 c63 -9 130 -17 149 -20 19 -2 51
-7 70 -9 19 -3 58 -8 85 -11 28 -3 61 -8 75 -10 14 -2 61 -9 105 -14 44 -6
116 -15 160 -21 44 -6 100 -13 125 -15 25 -3 56 -7 70 -10 14 -2 43 -7 65 -10
102 -13 443 -57 470 -60 17 -3 55 -7 85 -11 30 -3 58 -8 61 -10 7 -4 -15 -161
-24 -170 -5 -5 -151 8 -237 21 -14 2 -97 13 -185 25 -88 11 -171 23 -185 25
-14 2 -52 7 -85 11 -33 3 -67 8 -75 9 -34 6 -98 15 -145 20 -27 3 -61 7 -75
10 -14 2 -46 7 -72 10 -92 10 -144 17 -313 40 -93 13 -199 27 -235 31 -36 3
-68 8 -71 10 -3 2 -2 27 2 56 5 29 10 68 11 86 3 39 4 39 169 17z"/>
<path d="M274 1787 c-39 -21 -45 -56 -14 -87 34 -34 90 -9 90 40 0 41 -41 66
-76 47z"/>
<path d="M1610 1598 c-26 -28 -25 -52 2 -78 22 -20 48 -19 76 2 20 17 14 65
-10 82 -30 21 -43 20 -68 -6z"/>
<path d="M341 1524 l-82 -77 53 -54 52 -53 -132 0 -132 0 0 -109 c0 -95 2
-109 18 -113 9 -2 117 -4 240 -3 l222 0 78 -78 c70 -72 74 -78 47 -73 -16 4
-43 9 -60 11 -16 3 -68 13 -115 21 -47 9 -96 17 -110 19 -14 2 -49 9 -79 15
-30 5 -56 8 -58 7 -2 -2 -12 -51 -23 -107 -14 -74 -17 -106 -9 -111 6 -4 46
-12 88 -19 42 -7 87 -14 101 -17 14 -2 147 -26 295 -53 l270 -49 238 -242 239
-242 79 79 78 79 -107 112 c-59 61 -114 119 -122 128 -13 16 -13 17 5 12 11
-4 36 -9 55 -12 19 -3 69 -12 110 -20 244 -45 371 -67 375 -63 3 2 7 22 11 44
3 21 12 68 19 104 8 36 13 66 12 67 -3 2 -509 95 -804 147 l-73 13 -97 100
c-54 54 -104 106 -110 115 -12 13 34 15 440 16 248 0 461 1 472 1 19 1 20 8
21 111 l0 110 -587 0 -587 0 -124 131 -125 130 -82 -77z m238 -118 l64 -66
-71 0 -70 0 14 30 c26 51 -20 97 -71 70 -30 -16 -36 -42 -19 -74 12 -24 11
-26 -10 -26 -15 0 -42 19 -75 53 l-52 52 67 63 66 64 46 -50 c26 -27 76 -79
111 -116z m-114 -172 c47 -48 83 -89 80 -92 -4 -4 -310 -6 -406 -3 -14 1 -17
15 -18 91 l-2 90 130 0 130 0 86 -86z m290 -4 l90 -90 -35 -1 c-19 0 -77 -1
-128 -1 l-94 -1 -84 87 c-46 48 -84 90 -84 92 0 2 55 4 123 4 l122 0 90 -90z
m1067 78 c2 -7 4 -47 3 -88 l-2 -75 -474 -3 -474 -2 -90 90 -90 90 562 0 c440
0 562 -3 565 -12z m-854 -297 c56 -58 100 -106 98 -108 -3 -4 -85 10 -261 42
-20 4 -57 32 -107 83 -43 42 -78 79 -78 82 0 3 56 5 123 5 l124 0 101 -104z
m-537 -20 c63 -11 163 -29 224 -40 l110 -20 106 -111 c58 -60 103 -110 99
-110 -6 0 -265 46 -370 65 -111 21 -262 48 -294 52 l-38 6 6 41 c16 111 25
148 34 142 5 -3 60 -14 123 -25z m482 -89 c4 -1 22 -4 40 -7 17 -3 43 -7 57
-9 94 -15 95 -16 206 -127 60 -60 102 -109 93 -109 -8 0 -67 9 -130 21 -63 11
-122 21 -133 22 -16 1 -103 83 -214 200 l-34 35 54 -13 c29 -6 56 -13 61 -13z
m427 -77 c80 -13 204 -35 275 -49 72 -13 148 -27 170 -30 22 -4 47 -8 55 -11
8 -2 33 -6 55 -10 73 -10 77 -13 70 -53 -3 -20 -10 -60 -16 -88 l-10 -51 -42
7 c-23 5 -55 10 -72 13 -16 3 -93 17 -170 31 -77 14 -156 28 -175 31 -107 18
-110 20 -224 135 -83 83 -105 110 -86 106 14 -3 90 -17 170 -31z m-200 -169
c87 -17 109 -21 170 -31 41 -7 56 -18 172 -139 l128 -131 -64 -64 -64 -64 -82
84 c-45 46 -143 146 -218 222 -75 75 -132 137 -127 137 6 0 44 -6 85 -14z"/>
<path d="M247 1272 c-20 -22 -22 -63 -5 -80 30 -30 98 -1 98 41 0 23 -35 57
-58 57 -11 0 -26 -8 -35 -18z"/>
<path d="M1610 1270 c-38 -38 -15 -90 40 -90 50 0 69 66 28 94 -30 21 -44 20
-68 -4z"/>
<path d="M413 945 c-27 -19 -34 -49 -17 -73 22 -32 53 -34 81 -6 26 26 25 58
-5 82 -21 16 -33 15 -59 -3z"/>
<path d="M1740 695 c-18 -22 -15 -66 6 -82 26 -19 51 -16 75 8 20 20 19 48 -3
77 -14 17 -63 15 -78 -3z"/>
<path d="M1391 464 c-49 -35 -9 -114 48 -93 41 16 53 49 29 82 -18 24 -52 28
-77 11z"/>
</g>
</svg>
